<svg width="51" height="50" viewBox="0 0 51 50" fill="none" xmlns="http://www.w3.org/2000/svg">
<path d="M14.825 0H36.175C44.3083 0 50.9167 6.5 50.9167 14.5V35.5C50.9167 39.3456 49.3635 43.0338 46.5989 45.753C43.8343 48.4723 40.0847 50 36.175 50H14.825C6.69168 50 0.0833435 43.5 0.0833435 35.5V14.5C0.0833435 10.6544 1.63648 6.96623 4.40108 4.24695C7.16568 1.52767 10.9153 0 14.825 0ZM14.3167 5C11.8899 5 9.56261 5.94821 7.84665 7.63604C6.13069 9.32387 5.16668 11.6131 5.16668 14V36C5.16668 40.975 9.25876 45 14.3167 45H36.6833C39.1101 45 41.4374 44.0518 43.1534 42.364C44.8693 40.6761 45.8333 38.3869 45.8333 36V14C45.8333 9.025 41.7413 5 36.6833 5H14.3167ZM38.8438 8.75C39.6864 8.75 40.4945 9.07924 41.0903 9.66529C41.6861 10.2513 42.0208 11.0462 42.0208 11.875C42.0208 12.7038 41.6861 13.4987 41.0903 14.0847C40.4945 14.6708 39.6864 15 38.8438 15C38.0011 15 37.193 14.6708 36.5972 14.0847C36.0014 13.4987 35.6667 12.7038 35.6667 11.875C35.6667 11.0462 36.0014 10.2513 36.5972 9.66529C37.193 9.07924 38.0011 8.75 38.8438 8.75ZM25.5 12.5C28.8705 12.5 32.1029 13.817 34.4862 16.1612C36.8694 18.5054 38.2083 21.6848 38.2083 25C38.2083 28.3152 36.8694 31.4946 34.4862 33.8388C32.1029 36.183 28.8705 37.5 25.5 37.5C22.1295 37.5 18.8971 36.183 16.5139 33.8388C14.1306 31.4946 12.7917 28.3152 12.7917 25C12.7917 21.6848 14.1306 18.5054 16.5139 16.1612C18.8971 13.817 22.1295 12.5 25.5 12.5ZM25.5 17.5C23.4777 17.5 21.5383 18.2902 20.1083 19.6967C18.6784 21.1032 17.875 23.0109 17.875 25C17.875 26.9891 18.6784 28.8968 20.1083 30.3033C21.5383 31.7098 23.4777 32.5 25.5 32.5C27.5223 32.5 29.4617 31.7098 30.8917 30.3033C32.3217 28.8968 33.125 26.9891 33.125 25C33.125 23.0109 32.3217 21.1032 30.8917 19.6967C29.4617 18.2902 27.5223 17.5 25.5 17.5Z" fill="black"/>
</svg>
