<svg width="49" height="49" viewBox="0 0 49 49" fill="none" xmlns="http://www.w3.org/2000/svg">
<path d="M45.8558 12.25C44.2837 12.9646 42.5892 13.4342 40.8333 13.6588C42.63 12.5767 44.0183 10.8617 44.6717 8.79958C42.9771 9.82042 41.0987 10.535 39.1183 10.9433C37.5054 9.1875 35.2392 8.16667 32.6667 8.16667C27.8687 8.16667 23.9487 12.0867 23.9487 16.9254C23.9487 17.6196 24.0304 18.2933 24.1733 18.9263C16.905 18.5588 10.4329 15.0675 6.125 9.77958C5.36958 11.0658 4.94083 12.5767 4.94083 14.1692C4.94083 17.2113 6.47208 19.9063 8.84042 21.4375C7.39083 21.4375 6.04333 21.0292 4.85917 20.4167V20.4779C4.85917 24.7246 7.88083 28.2771 11.8825 29.0733C10.5977 29.4249 9.24894 29.4738 7.94208 29.2163C8.49661 30.9567 9.58264 32.4797 11.0475 33.571C12.5123 34.6623 14.2824 35.2671 16.1087 35.3004C13.0128 37.7513 9.17524 39.0761 5.22667 39.0571C4.5325 39.0571 3.83833 39.0162 3.14417 38.9346C7.02333 41.4254 11.6375 42.875 16.5783 42.875C32.6667 42.875 41.5071 29.5225 41.5071 17.9463C41.5071 17.5583 41.5071 17.1908 41.4867 16.8029C43.2017 15.5779 44.6717 14.0263 45.8558 12.25Z" fill="black"/>
</svg>
