<svg width="34" height="38" viewBox="0 0 34 38" fill="none" xmlns="http://www.w3.org/2000/svg">
<path d="M26.5833 6.125C25.1592 4.49921 24.3744 2.41132 24.375 0.25H17.9375V26.0833C17.8878 27.4813 17.2976 28.8055 16.2912 29.777C15.2847 30.7484 13.9405 31.2915 12.5417 31.2917C9.58332 31.2917 7.12499 28.875 7.12499 25.875C7.12499 22.2917 10.5833 19.6042 14.1458 20.7083V14.125C6.95832 13.1667 0.666656 18.75 0.666656 25.875C0.666656 32.8125 6.41666 37.75 12.5208 37.75C19.0625 37.75 24.375 32.4375 24.375 25.875V12.7708C26.9854 14.6455 30.1195 15.6513 33.3333 15.6458V9.20833C33.3333 9.20833 29.4167 9.39583 26.5833 6.125Z" fill="black"/>
</svg>
