<svg width="71" height="49" viewBox="0 0 71 49" fill="none" xmlns="http://www.w3.org/2000/svg">
<path d="M35.7263 0.495743H36.1213C39.7689 0.508493 58.2511 0.635994 63.2344 1.91949C64.7409 2.31121 66.1137 3.07474 67.2155 4.13378C68.3174 5.19282 69.1098 6.51027 69.5134 7.95449C69.9616 9.56949 70.2767 11.7072 70.4897 13.913L70.5341 14.355L70.6317 15.46L70.6672 15.902C70.9556 19.7865 70.9911 23.4245 70.9956 24.2192V24.538C70.9911 25.3625 70.9512 29.247 70.6317 33.293L70.5962 33.7392L70.5562 34.1812C70.3344 36.6122 70.006 39.0262 69.5134 40.8027C69.111 42.2475 68.319 43.5656 67.217 44.6248C66.1149 45.6841 64.7415 46.4472 63.2344 46.8377C58.0869 48.1637 38.5219 48.2572 35.8106 48.2615H35.1805C33.8093 48.2615 28.1382 48.236 22.1919 48.0405L21.4376 48.015L21.0515 47.998L20.2927 47.9682L19.5339 47.9385C14.6082 47.7302 9.91781 47.3945 7.75675 46.8335C6.25017 46.4433 4.8771 45.6808 3.77509 44.6224C2.67308 43.564 1.88082 42.2468 1.47769 40.8027C0.985125 39.0305 0.65675 36.6122 0.434875 34.1812L0.399375 33.735L0.363875 33.293C0.144874 30.4132 0.0235182 27.5273 0 24.64L0 24.1172C0.008875 23.2035 0.044375 20.0457 0.284 16.5607L0.315063 16.123L0.328375 15.902L0.363875 15.46L0.4615 14.355L0.505875 13.913C0.718875 11.7072 1.03394 9.56524 1.48212 7.95449C1.88458 6.5097 2.67653 5.19161 3.77859 4.13239C4.88065 3.07317 6.25408 2.31004 7.76119 1.91949C9.92225 1.36699 14.6127 1.02699 19.5383 0.814492L20.2927 0.784743L21.0559 0.759243L21.4376 0.746493L22.1964 0.716743C26.4196 0.586585 30.6445 0.514327 34.8699 0.499993H35.7263V0.495743ZM28.4 14.1382V34.6147L46.8467 24.3807L28.4 14.1382Z" fill="black"/>
</svg>
